# This file uses centimeters as units for non-parametric coordinates.
v 1.000000 1.000000 -1.000000
v 1.000000 -1.000000 -1.000000
v -1.000000 -1.000000 -1.000000
v -1.000000 1.000000 -1.000000
v 1.000000 1.000000 1.000000
v 1.000000 -1.000000 1.000000
v -1.000000 -1.000000 1.000000
v -1.000000 1.000000 1.000000
vt 0.9999 0.7499	
vt 0.6665 0.7499
vt 0.6665 0.5001
vt 0.9999 0.5001
vt 0.3334 0.5001
vt 0.3334 0.2500
vt 0.6665 0.2500
vt 0.6665 0.5001
vt 0.3334 0.7499
vt 0.0001 0.7499
vt 0.3334 0.5001
vt 0.0001 0.5001
vt 0.6665 0.7499
vt 0.6665 0.9999
vt 0.3334 0.7499
vt 0.3334 0.9999
vt 0.6665 0.0001
vt 0.6665 0.2500
vt 0.3334 0.0001
vt 0.3334 0.2500
vt 0.6665 0.7499
vt 0.3334 0.7499
vt 0.3334 0.5001
vt 0.6665 0.5001
vn 0.000000 1.000000 -0.000000
vn 0.000000 1.000000 -0.000000
vn 0.000000 1.000000 -0.000000
vn 0.000000 1.000000 -0.000000
vn 0.000000 1.000000 -0.000000
vn 0.000000 1.000000 -0.000000
vn -1.000000 0.000000 -0.000000
vn -1.000000 0.000000 -0.000000
vn -1.000000 0.000000 -0.000000
vn -1.000000 0.000000 -0.000000
vn -1.000000 0.000000 -0.000000
vn -1.000000 0.000000 -0.000000
vn 0.000000 -1.000000 0.000000
vn 0.000000 -1.000000 0.000000
vn 0.000000 -1.000000 0.000000
vn -0.000001 -1.000000 0.000000
vn -0.000001 -1.000000 0.000000
vn -0.000001 -1.000000 0.000000
vn 1.000000 -0.000000 0.000000
vn 1.000000 -0.000000 0.000000
vn 1.000000 -0.000000 0.000000
vn 1.000000 -0.000001 0.000000
vn 1.000000 -0.000001 0.000000
vn 1.000000 -0.000001 0.000000
vn 0.000000 0.000000 1.000000
vn 0.000000 0.000000 1.000000
vn 0.000000 0.000000 1.000000
vn 0.000000 0.000000 1.000000
vn 0.000000 0.000000 1.000000
vn 0.000000 0.000000 1.000000
vn 0.000000 -0.000000 -1.000000
vn 0.000000 -0.000000 -1.000000
vn 0.000000 -0.000000 -1.000000
vn 0.000000 -0.000000 -1.000000
vn 0.000000 -0.000000 -1.000000
vn 0.000000 -0.000000 -1.000000
f 5/1/1 1/2/2 4/3/3
f 5/1/4 4/3/5 8/4/6
f 3/5/7 7/6/8 8/7/9
f 3/5/10 8/7/11 4/8/12
f 2/9/13 6/10/14 3/11/15
f 6/10/16 7/12/17 3/11/18
f 1/13/19 5/14/20 2/15/21
f 5/14/22 6/16/23 2/15/24
f 5/17/25 8/18/26 6/19/27
f 8/18/28 7/20/29 6/19/30
f 1/21/31 2/22/32 3/23/33
f 1/21/34 3/23/35 4/24/36