# This file uses centimeters as units for non-parametric coordinates.

v 0.181636 -0.809017 -0.559017
v -0.475528 -0.809017 -0.345492
v -0.475528 -0.809017 0.345491
v 0.181636 -0.809017 0.559017
v 0.587785 -0.809017 0.000000
v 0.293893 -0.309017 -0.904509
v -0.769421 -0.309017 -0.559017
v -0.769421 -0.309017 0.559017
v 0.293893 -0.309017 0.904509
v 0.951057 -0.309017 0.000000
v 0.293893 0.309017 -0.904509
v -0.769421 0.309017 -0.559017
v -0.769421 0.309017 0.559017
v 0.293893 0.309017 0.904509
v 0.951057 0.309017 0.000000
v 0.181636 0.809017 -0.559017
v -0.475528 0.809017 -0.345492
v -0.475528 0.809017 0.345491
v 0.181636 0.809017 0.559017
v 0.587785 0.809017 0.000000
v 0.000000 -1.000000 0.000000
v 0.000000 1.000000 0.000000
vt 0.000000 0.200000
vt 0.200000 0.200000
vt 0.400000 0.200000
vt 0.600000 0.200000
vt 0.800000 0.200000
vt 1.000000 0.200000
vt 0.000000 0.400000
vt 0.200000 0.400000
vt 0.400000 0.400000
vt 0.600000 0.400000
vt 0.800000 0.400000
vt 1.000000 0.400000
vt 0.000000 0.600000
vt 0.200000 0.600000
vt 0.400000 0.600000
vt 0.600000 0.600000
vt 0.800000 0.600000
vt 1.000000 0.600000
vt 0.000000 0.800000
vt 0.200000 0.800000
vt 0.400000 0.800000
vt 0.600000 0.800000
vt 0.800000 0.800000
vt 1.000000 0.800000
vt 0.100000 0.000000
vt 0.300000 0.000000
vt 0.500000 0.000000
vt 0.700000 0.000000
vt 0.900000 0.000000
vt 0.100000 1.000000
vt 0.300000 1.000000
vt 0.500000 1.000000
vt 0.700000 1.000000
vt 0.900000 1.000000
vn 0.285683 -0.721953 -0.630213
vn -0.511087 -0.721953 -0.466448
vn 0.326045 -0.253237 -0.910805
vn -0.765473 -0.253237 -0.591542
vn -0.601553 -0.721953 0.341933
vn -0.799134 -0.253237 0.545212
vn 0.139307 -0.721953 0.677774
vn 0.271582 -0.253237 0.928501
vn 0.687650 -0.721953 0.076955
vn 0.966981 -0.253237 0.028633
vn 0.271582 0.253237 -0.928501
vn -0.799134 0.253237 -0.545212
vn -0.765473 0.253237 0.591542
vn 0.326045 0.253237 0.910805
vn 0.966981 0.253237 -0.028633
vn 0.139307 0.721953 -0.677774
vn -0.601553 0.721953 -0.341933
vn -0.511087 0.721953 0.466448
vn 0.285683 0.721953 0.630213
vn 0.687649 0.721953 -0.076954
vn -0.000000 -1.000000 -0.000000
vn -0.000000 1.000000 -0.000000
f 1/1/1 2/2/2 6/7/3
f 6/7/3 2/2/2 7/8/4
f 2/2/2 3/3/5 7/8/4
f 7/8/4 3/3/5 8/9/6
f 3/3/5 4/4/7 8/9/6
f 8/9/6 4/4/7 9/10/8
f 4/4/7 5/5/9 9/10/8
f 9/10/8 5/5/9 10/11/10
f 5/5/9 1/6/1 10/11/10
f 10/11/10 1/6/1 6/12/3
f 6/7/3 7/8/4 11/13/11
f 11/13/11 7/8/4 12/14/12
f 7/8/4 8/9/6 12/14/12
f 12/14/12 8/9/6 13/15/13
f 8/9/6 9/10/8 13/15/13
f 13/15/13 9/10/8 14/16/14
f 9/10/8 10/11/10 14/16/14
f 14/16/14 10/11/10 15/17/15
f 10/11/10 6/12/3 15/17/15
f 15/17/15 6/12/3 11/18/11
f 11/13/11 12/14/12 16/19/16
f 16/19/16 12/14/12 17/20/17
f 12/14/12 13/15/13 17/20/17
f 17/20/17 13/15/13 18/21/18
f 13/15/13 14/16/14 18/21/18
f 18/21/18 14/16/14 19/22/19
f 14/16/14 15/17/15 19/22/19
f 19/22/19 15/17/15 20/23/20
f 15/17/15 11/18/11 20/23/20
f 20/23/20 11/18/11 16/24/16
f 2/2/2 1/1/1 21/25/21
f 3/3/5 2/2/2 21/26/21
f 4/4/7 3/3/5 21/27/21
f 5/5/9 4/4/7 21/28/21
f 1/6/1 5/5/9 21/29/21
f 16/19/16 17/20/17 22/30/22
f 17/20/17 18/21/18 22/31/22
f 18/21/18 19/22/19 22/32/22
f 19/22/19 20/23/20 22/33/22
f 20/23/20 16/24/16 22/34/22
